<svg width="21" height="20" viewBox="0 0 21 20" fill="none" xmlns="http://www.w3.org/2000/svg">
<path d="M4.23607 3.93977C4.00364 3.79279 3.72253 3.80013 3.4959 3.9591C3.26927 4.11808 3.13049 4.40526 3.13049 4.71528V15.8719C3.13049 16.3584 3.46628 16.7527 3.88049 16.7527C4.29471 16.7527 4.63049 16.3584 4.63049 15.8719V6.18991L10.0249 9.60113C10.2469 9.7415 10.5141 9.7415 10.7361 9.60113L16.1305 6.18991V15.8719C16.1305 16.3584 16.4663 16.7527 16.8805 16.7527C17.2947 16.7527 17.6305 16.3584 17.6305 15.8719V4.71528C17.6305 4.40526 17.4917 4.11808 17.2651 3.9591C17.0385 3.80013 16.7573 3.79279 16.5249 3.93977L10.3805 7.82526L4.23607 3.93977Z" fill="#8A2BE2"/>
<path fill-rule="evenodd" clip-rule="evenodd" d="M15.6911 0.27826C12.1577 -0.0927534 8.60326 -0.0927534 5.06992 0.27826L3.55258 0.437587C1.92496 0.608493 0.609891 2.06875 0.373499 3.96763C-0.1245 7.96795 -0.1245 12.0321 0.373499 16.0324C0.609891 17.9313 1.92496 19.3915 3.55258 19.5624L5.06992 19.7217C8.60326 20.0928 12.1577 20.0928 15.6911 19.7217L17.2084 19.5624C18.836 19.3915 20.1511 17.9313 20.3875 16.0324C20.8855 12.0321 20.8855 7.96795 20.3875 3.96763C20.1511 2.06875 18.836 0.608493 17.2084 0.437587L15.6911 0.27826ZM5.20351 2.03284C8.64797 1.67116 12.113 1.67116 15.5575 2.03284L17.0748 2.19216C18.011 2.29046 18.7673 3.13032 18.9033 4.22246C19.3802 8.05379 19.3802 11.9462 18.9033 15.7775C18.7673 16.8697 18.011 17.7095 17.0748 17.8078L15.5575 17.9672C12.113 18.3288 8.64797 18.3288 5.20351 17.9672L3.68616 17.8078C2.75004 17.7095 1.99368 16.8697 1.85772 15.7775C1.38076 11.9462 1.38076 8.05379 1.85772 4.22246C1.99368 3.13032 2.75004 2.29046 3.68616 2.19216L5.20351 2.03284Z" fill="#8A2BE2"/>
</svg>
