<svg width="20" height="25" viewBox="0 0 20 25" fill="none" xmlns="http://www.w3.org/2000/svg">
<path fill-rule="evenodd" clip-rule="evenodd" d="M7.42716 0.284287C2.8562 1.3788 -0.299719 5.14207 0.0226127 9.11388C0.0860529 9.89527 0.300397 10.9284 0.498648 11.4093C1.05095 12.7489 9.04908 24.6663 9.55077 24.8973C9.84441 25.0326 10.1378 25.0342 10.4247 24.902C11.0307 24.623 18.8585 12.8237 19.4904 11.2373C20.6584 8.30418 19.7873 5.05877 17.1997 2.70435C14.7067 0.43583 10.817 -0.527417 7.42716 0.284287ZM12.1635 5.96903C14.5651 7.18016 15.1872 10.0462 13.4234 11.7748C12.5462 12.6347 11.1349 13.2356 9.99275 13.2356C8.36873 13.2356 6.3755 12.062 5.80943 10.7726C5.46448 9.9868 5.49969 8.53842 5.88243 7.76846C6.87299 5.77634 10.003 4.87953 12.1635 5.96903Z" fill="#7343CC"/>
</svg>
